# Blender 5.1.2
# www.blender.org
mtllib Temp_AlphaWing_Enemy_Bot01_Thrust.mtl
o Cone
v -1.526086 -0.050843 -1.322504
v -1.539999 0.097033 -1.324045
v -1.553377 0.239227 -1.324258
v -1.597247 0.752077 -1.328139
v -1.597528 0.740115 -1.095182
v -1.597950 0.731294 -0.893231
v -1.598818 0.717227 -0.526443
v -1.598883 0.716575 -0.412824
v -1.598352 0.715997 -0.152830
v -1.598883 0.716575 0.107164
v -1.598818 0.717227 0.222278
v -1.597950 0.731294 0.587571
v -1.597528 0.740115 0.789522
v -1.597247 0.752077 1.041047
v -1.553377 0.239227 1.041745
v -1.539999 0.097033 1.041421
v -1.526086 -0.050843 1.043128
v -1.512174 -0.198719 1.045213
v -1.498796 -0.340913 1.044316
v -1.486466 -0.573213 1.041449
v -1.475660 -0.586822 0.789522
v -1.466791 -0.574149 0.587571
v -1.467266 -0.569100 0.357167
v -1.467185 -0.569959 0.107164
v -1.467031 -0.571604 -0.152830
v -1.467185 -0.569959 -0.412824
v -1.467266 -0.569100 -0.662827
v -1.466791 -0.574149 -0.893231
v -1.475660 -0.586822 -1.095182
v -1.486466 -0.573213 -1.316652
v -1.498796 -0.340913 -1.324258
v -1.512174 -0.198719 -1.324045
v -3.517293 -0.238182 -0.152830
vn -0.5018 -0.0562 -0.8632
vn -0.5029 -0.0486 -0.8630
vn -0.5027 -0.0495 -0.8630
vn -0.4357 0.8989 0.0456
vn -0.4387 0.8978 0.0383
vn -0.4403 0.8972 0.0334
vn -0.4450 0.8955 0.0049
vn -0.4452 0.8954 0.0029
vn -0.4452 0.8954 -0.0029
vn -0.4450 0.8955 -0.0048
vn -0.4403 0.8972 -0.0335
vn -0.4387 0.8978 -0.0383
vn -0.4371 0.8984 -0.0422
vn -0.5116 -0.0426 0.8582
vn -0.5101 -0.0500 0.8586
vn -0.5119 -0.0383 0.8582
vn -0.5121 -0.0361 0.8582
vn -0.5114 -0.0535 0.8577
vn -0.5112 -0.0377 0.8586
vn -0.1883 -0.9811 0.0449
vn -0.1373 -0.9882 -0.0680
vn -0.1541 -0.9878 -0.0213
vn -0.1602 -0.9871 0.0033
vn -0.1605 -0.9870 0.0061
vn -0.1605 -0.9870 -0.0061
vn -0.1602 -0.9871 -0.0033
vn -0.1541 -0.9878 0.0213
vn -0.1373 -0.9882 0.0680
vn -0.1909 -0.9803 -0.0509
vn -0.5033 -0.0549 -0.8624
vn 0.9952 0.0974 -0.0000
vn -0.5032 -0.0460 -0.8630
vn -0.5034 -0.0384 -0.8632
vt 0.250000 0.490000
vt 0.250000 0.250000
vt 0.296822 0.485388
vt 0.341844 0.471731
vt 0.383337 0.449553
vt 0.419706 0.419706
vt 0.449553 0.383337
vt 0.471731 0.341844
vt 0.485388 0.296822
vt 0.490000 0.250000
vt 0.485388 0.203178
vt 0.471731 0.158156
vt 0.449553 0.116663
vt 0.419706 0.080294
vt 0.383337 0.050447
vt 0.341844 0.028269
vt 0.296822 0.014612
vt 0.250000 0.010000
vt 0.203178 0.014612
vt 0.158156 0.028269
vt 0.116663 0.050447
vt 0.080294 0.080294
vt 0.050447 0.116663
vt 0.028269 0.158156
vt 0.014612 0.203178
vt 0.010000 0.250000
vt 0.014612 0.296822
vt 0.028269 0.341844
vt 0.050447 0.383337
vt 0.080294 0.419706
vt 0.116663 0.449553
vt 0.158156 0.471731
vt 0.750000 0.490000
vt 0.796822 0.485388
vt 0.841844 0.471731
vt 0.883337 0.449553
vt 0.919706 0.419706
vt 0.949553 0.383337
vt 0.971731 0.341844
vt 0.985388 0.296822
vt 0.990000 0.250000
vt 0.985388 0.203178
vt 0.971731 0.158156
vt 0.949553 0.116663
vt 0.919706 0.080294
vt 0.883337 0.050447
vt 0.841844 0.028269
vt 0.796822 0.014612
vt 0.750000 0.010000
vt 0.703178 0.014612
vt 0.658156 0.028269
vt 0.616663 0.050447
vt 0.580294 0.080294
vt 0.550447 0.116663
vt 0.528269 0.158156
vt 0.514612 0.203178
vt 0.510000 0.250000
vt 0.514612 0.296822
vt 0.528269 0.341844
vt 0.550447 0.383337
vt 0.580294 0.419706
vt 0.616663 0.449553
vt 0.658156 0.471731
vt 0.703178 0.485388
vt 0.203178 0.485388
s 0
f 1/1/1 33/2/1 2/3/1
f 2/3/2 33/2/2 3/4/2
f 3/4/3 33/2/3 4/5/3
f 4/5/4 33/2/4 5/6/4
f 5/6/5 33/2/5 6/7/5
f 6/7/6 33/2/6 7/8/6
f 7/8/7 33/2/7 8/9/7
f 8/9/8 33/2/8 9/10/8
f 9/10/9 33/2/9 10/11/9
f 10/11/10 33/2/10 11/12/10
f 11/12/11 33/2/11 12/13/11
f 12/13/12 33/2/12 13/14/12
f 13/14/13 33/2/13 14/15/13
f 14/15/14 33/2/14 15/16/14
f 15/16/15 33/2/15 16/17/15
f 16/17/16 33/2/16 17/18/16
f 17/18/17 33/2/17 18/19/17
f 18/19/18 33/2/18 19/20/18
f 19/20/19 33/2/19 20/21/19
f 20/21/20 33/2/20 21/22/20
f 21/22/21 33/2/21 22/23/21
f 22/23/22 33/2/22 23/24/22
f 23/24/23 33/2/23 24/25/23
f 24/25/24 33/2/24 25/26/24
f 25/26/25 33/2/25 26/27/25
f 26/27/26 33/2/26 27/28/26
f 27/28/27 33/2/27 28/29/27
f 28/29/28 33/2/28 29/30/28
f 29/30/29 33/2/29 30/31/29
f 30/31/30 33/2/30 31/32/30
f 1/33/31 2/34/31 3/35/31 4/36/31 5/37/31 6/38/31 7/39/31 8/40/31 9/41/31 10/42/31 11/43/31 12/44/31 13/45/31 14/46/31 15/47/31 16/48/31 17/49/31 18/50/31 19/51/31 20/52/31 21/53/31 22/54/31 23/55/31 24/56/31 25/57/31 26/58/31 27/59/31 28/60/31 29/61/31 30/62/31 31/63/31 32/64/31
f 31/32/32 33/2/32 32/65/32
f 32/65/33 33/2/33 1/1/33
