# Blender 5.1.2
# www.blender.org
mtllib Temp_AlphaWingEX_Bot02.mtl
o Cube.005
v -1.334695 -1.000000 0.368438
v -1.564163 1.000000 1.139372
v -1.334695 -1.000000 -0.368438
v -1.564163 1.000000 -1.139372
v 1.564163 -1.000000 0.368438
v 0.354136 1.000000 0.373548
v 1.564163 -1.000000 -0.368438
v 0.354136 1.000000 -0.373548
v -1.334695 -1.000000 -0.303510
v -1.334695 -1.000000 0.303510
v -1.564163 1.000000 0.303510
v -1.564163 1.000000 -0.303510
v 1.564163 -1.000000 0.303510
v 1.564163 -1.000000 -0.303510
v 0.354136 1.000000 -0.303510
v 0.354136 1.000000 0.303510
v 0.085093 -1.000000 -0.368438
v -0.957682 -1.000000 -0.368438
v -0.957682 1.000000 -0.474993
v 0.085093 1.000000 -0.474993
v -0.957682 -1.000000 0.368438
v 0.085093 -1.000000 0.368438
v 0.085093 1.000000 0.474993
v -0.957682 1.000000 0.474993
v -0.957682 1.235050 -0.303510
v 0.085093 1.235050 -0.303510
v -0.957682 1.235050 0.303510
v 0.085093 1.235050 0.303510
v 0.085093 -1.000000 -0.303510
v -0.957682 -1.000000 -0.303510
v 0.085093 -1.000000 0.303510
v -0.957682 -1.000000 0.303510
v -1.564163 -0.333333 1.139372
v -1.564163 0.333333 1.139372
v -1.564163 0.333333 -1.139372
v -1.564163 -0.333333 -1.139372
v 0.354136 0.333333 -0.373548
v 1.564163 -0.333333 -0.373548
v 0.354136 0.333333 0.373548
v 1.564163 -0.333333 0.373548
v 0.354136 0.597883 -0.303510
v 1.564163 -0.068784 -0.303510
v 0.354136 0.597883 0.303510
v 1.564163 -0.068784 0.303510
v 0.085093 0.333333 0.910530
v 0.085093 -0.333333 0.910530
v -0.957682 0.333333 0.910530
v -0.957682 -0.333333 0.910530
v -0.957682 0.333333 -0.910530
v -0.957682 -0.333333 -0.910530
v 0.085093 0.333333 -0.910530
v 0.085093 -0.333333 -0.910530
v 0.174774 1.000000 -0.474993
v 0.264455 1.000000 -0.474993
v 0.128789 -1.000000 0.368438
v 1.387435 -1.000000 0.368438
v 0.174774 1.134627 -0.303510
v 0.264455 1.134627 -0.303510
v 0.174774 1.134627 0.303510
v 0.264455 1.134627 0.303510
v 1.387435 -1.000000 -0.368438
v 0.128789 -1.000000 -0.368438
v 0.264455 1.000000 0.474993
v 0.174774 1.000000 0.474993
v 1.387435 -1.000000 -0.303510
v 0.128789 -1.000000 -0.303510
v 1.387435 -1.000000 0.303510
v 0.128789 -1.000000 0.303510
v 1.071140 -0.333333 0.910530
v 0.578117 -0.333333 0.910530
v 0.264455 0.333333 0.910530
v 0.174774 0.333333 0.910530
v 0.578117 -0.333333 -0.910530
v 1.071140 -0.333333 -0.910530
v 0.174774 0.333333 -0.910530
v 0.264455 0.333333 -0.910530
v -1.564163 -0.454948 -1.139372
v 1.564163 -0.454948 -0.373548
v 1.564163 -0.454948 0.373548
v 1.564163 -0.454948 -0.303510
v 1.564163 -0.454948 0.303510
v 0.085093 -0.454948 0.910530
v -0.957682 -0.454948 0.910530
v -0.957682 -0.454948 -0.910530
v 0.085093 -0.454948 -0.910530
v -1.564163 -0.454948 1.139372
v 0.578117 -0.454948 -0.910530
v 1.071140 -0.454948 -0.910530
v 1.071140 -0.454948 0.910530
v 0.578117 -0.454948 0.910530
v 0.210756 1.000000 -0.474993
v 1.340040 -1.000000 0.368438
v 0.210756 1.134627 -0.303510
v 0.210756 1.134627 0.303510
v 1.340040 -1.000000 -0.368438
v 0.210756 1.000000 0.474993
v 1.340040 -1.000000 -0.303510
v 1.340040 -1.000000 0.303510
v 0.775931 -0.333333 0.910530
v 0.210756 0.333333 0.910530
v 0.775931 -0.333333 -0.910530
v 0.210756 0.333333 -0.910530
v 0.775931 -0.454948 0.910530
v 0.775931 -0.454948 -0.910530
v -1.245774 -0.727474 -0.684611
v -1.245774 -0.727474 0.303510
v -1.245774 -0.727474 -0.303510
v 0.085093 -0.727474 0.684611
v -0.957682 -0.727474 0.684611
v -0.957682 -0.727474 -0.684611
v 0.085093 -0.727474 -0.684611
v 0.357924 -0.706481 -0.474993
v 0.357924 -0.706481 0.474993
v -1.245774 -0.727474 0.684611
v -1.463678 1.276813 0.244063
v -1.463678 1.276813 -0.244063
v -0.975986 1.465825 -0.244063
v -0.137455 1.465825 -0.244063
v -0.975986 1.465825 0.244063
v -0.137455 1.465825 0.244063
v 0.085093 -0.645853 0.834910
v -1.564163 -0.645853 -0.406531
v -1.564163 -0.645853 0.406531
v -1.564163 -0.645853 1.139372
v -1.564163 -0.645853 -1.139372
v -0.957682 -0.645853 0.834910
v -0.957682 -0.645853 -0.834910
v 0.085093 -0.645853 -0.834910
v 0.423871 -0.631147 -0.605437
v 0.423871 -0.631147 0.605437
v -1.690388 1.000000 1.054562
v -1.690388 1.000000 -1.054562
v -1.690388 1.000000 0.280918
v -1.690388 1.000000 -0.280918
v -1.690388 -0.333333 1.054562
v -1.690388 0.333333 1.054562
v -1.690388 0.333333 -1.054562
v -1.690388 -0.333333 -1.054562
v -1.690388 -0.454948 -1.054562
v -1.690388 -0.454948 1.054562
v -1.690388 -0.645853 -0.376271
v -1.690388 -0.645853 0.376271
v -1.690388 -0.645853 1.054562
v -1.690388 -0.645853 -1.054562
v -2.385506 0.315410 0.453085
v -2.385506 0.315410 -0.453085
v -2.852761 0.714688 0.218018
v -2.852761 0.714688 -0.218018
v -2.385506 -0.024776 0.453085
v -2.385506 0.145317 0.453085
v -2.385506 0.145317 -0.453085
v -2.385506 -0.024776 -0.453085
v -2.289559 0.240167 0.233369
v -2.289559 -0.250794 0.233369
v -2.289559 0.240167 -0.233369
v -2.289559 -0.250794 -0.233369
v -2.385506 -0.055805 -0.453085
v -2.289559 -0.323916 0.233369
v -2.289559 -0.323916 -0.233369
v -2.385506 -0.055805 0.453085
v -1.849496 -0.480947 -0.312581
v -1.849496 -0.480947 0.312581
v -1.849496 -0.480947 0.876062
v -1.849496 -0.480947 -0.876062
v 1.564163 -0.727474 -0.370993
v 1.564163 -0.727474 0.370993
v 1.564163 -0.727474 -0.303510
v 1.564163 -0.727474 0.303510
v 1.229287 -0.727474 -0.639484
v 1.229287 -0.727474 0.639484
v 1.057985 -0.727474 -0.639484
v 1.057985 -0.727474 0.639484
vn -0.0000 1.0000 -0.0000
vn 0.9590 0.0880 -0.2694
vn 1.0000 -0.0000 -0.0000
vn 0.5735 0.2544 0.7787
vn -0.0000 -1.0000 -0.0000
vn -0.0641 0.9718 0.2268
vn -0.0641 0.9718 -0.2268
vn -0.9400 0.3412 -0.0000
vn -0.5577 -0.0000 0.8300
vn 0.7459 0.6661 -0.0000
vn 0.7198 0.6942 -0.0000
vn 0.3559 0.6356 -0.6851
vn -0.0000 0.5894 -0.8079
vn 0.3559 0.6356 0.6851
vn -0.0000 0.5894 0.8079
vn -0.0000 0.5469 0.8372
vn 0.5735 0.2544 -0.7787
vn -0.0000 0.5469 -0.8372
vn -0.0000 -0.0000 -1.0000
vn 0.3530 -0.0000 -0.9356
vn -0.0000 -0.0000 1.0000
vn -0.5577 -0.0000 -0.8300
vn 0.4826 0.8759 -0.0000
vn 0.1396 0.2534 -0.9572
vn 0.3530 -0.0000 0.9356
vn 0.1396 0.2534 0.9572
vn 0.7366 -0.0000 -0.6763
vn 0.5284 0.7992 -0.2867
vn 0.5284 0.7992 0.2867
vn 0.7366 -0.0000 0.6763
vn 0.9590 0.0880 0.2694
vn 0.6814 0.6393 0.3564
vn -0.0000 0.7866 0.6175
vn 0.6814 0.6393 -0.3564
vn -0.0000 0.7866 -0.6175
vn 0.8323 0.5544 -0.0000
vn -0.9507 0.3102 -0.0000
vn 0.6888 -0.1555 0.7080
vn -0.0000 -0.7052 -0.7090
vn 0.1899 -0.7441 -0.6405
vn 0.6888 -0.1555 -0.7080
vn 0.3960 -0.1784 0.9007
vn 0.1899 -0.7441 0.6405
vn -0.0000 -0.3683 0.9297
vn 0.3960 -0.1784 -0.9007
vn -0.0000 -0.3683 -0.9297
vn 0.4516 -0.6440 0.6175
vn -0.0000 -0.7052 0.7090
vn -0.0000 -0.7575 0.6529
vn -0.0000 -0.7575 -0.6529
vn 0.4516 -0.6440 -0.6175
vn -0.3614 0.9324 -0.0000
vn -0.0000 0.2495 -0.9684
vn -0.0936 0.2414 0.9659
vn -0.0936 0.2414 -0.9659
vn -0.0000 0.2495 0.9684
vn -0.0000 -0.8788 -0.4772
vn 0.1057 -0.9447 -0.3105
vn -0.0000 -0.8788 0.4772
vn 0.3358 -0.8536 0.3983
vn -0.2483 -0.9687 -0.0000
vn 0.1057 -0.9447 0.3105
vn 0.3358 -0.8536 -0.3983
vn -0.7196 -0.6943 -0.0000
vn -0.6543 -0.0000 0.7562
vn -0.7233 -0.1697 -0.6694
vn -0.6543 -0.0000 -0.7562
vn -0.2384 0.9712 -0.0000
vn -0.5343 0.6716 0.5133
vn -0.5343 0.6716 -0.5133
vn -0.7479 -0.6559 0.1020
vn -0.7479 -0.6559 -0.1020
vn -0.6443 -0.7647 -0.0000
vn -1.0000 -0.0000 -0.0000
vn -0.9164 -0.0000 -0.4002
vn -0.9164 -0.0000 0.4002
vn -0.5759 -0.7925 -0.2007
vn -0.5759 -0.7925 0.2007
vn -0.3361 -0.9418 -0.0000
vn -0.7233 -0.1697 0.6694
vn 0.4439 -0.2958 -0.8458
vn 0.4439 -0.2958 0.8458
vn -0.6949 -0.7192 -0.0000
vn 0.7672 -0.6414 -0.0000
vt 0.875000 0.583333
vt 0.875000 0.500000
vt 0.541667 0.460600
vt 0.625000 0.460600
vt 0.625000 0.500000
vt 0.541667 0.500000
vt 0.541667 0.666667
vt 0.625000 0.666667
vt 0.625000 0.750000
vt 0.541667 0.750000
vt 0.541667 0.951533
vt 0.625000 0.951533
vt 0.625000 1.000000
vt 0.541667 1.000000
vt 0.335600 0.666667
vt 0.375000 0.666667
vt 0.375000 0.750000
vt 0.335600 0.750000
vt 0.826533 0.666667
vt 0.875000 0.666667
vt 0.875000 0.750000
vt 0.826533 0.750000
vt 0.826533 0.500000
vt 0.826533 0.583333
vt 0.625000 0.166667
vt 0.625000 0.083333
vt 0.335600 0.500000
vt 0.375000 0.500000
vt 0.375000 0.583333
vt 0.335600 0.583333
vt 0.625000 0.583333
vt 0.541667 0.583333
vt 0.458333 1.000000
vt 0.125000 0.583333
vt 0.173467 0.583333
vt 0.173467 0.666667
vt 0.125000 0.666667
vt 0.256800 0.583333
vt 0.256800 0.666667
vt 0.125000 0.500000
vt 0.173467 0.500000
vt 0.256800 0.500000
vt 0.703800 0.583333
vt 0.743200 0.583333
vt 0.743200 0.666667
vt 0.703800 0.666667
vt 0.703800 0.500000
vt 0.743200 0.500000
vt 0.743200 0.750000
vt 0.703800 0.750000
vt 0.173467 0.750000
vt 0.125000 0.750000
vt 0.256800 0.750000
vt 0.541667 0.828800
vt 0.625000 0.828800
vt 0.625000 0.868200
vt 0.541667 0.868200
vt 0.541667 0.250000
vt 0.625000 0.250000
vt 0.625000 0.298467
vt 0.541667 0.298467
vt 0.625000 0.381800
vt 0.541667 0.381800
vt 0.443131 0.298467
vt 0.458333 0.298467
vt 0.458333 0.381800
vt 0.443131 0.381800
vt 0.443131 0.250000
vt 0.458333 0.250000
vt 0.443131 0.868200
vt 0.458333 0.868200
vt 0.458333 0.951533
vt 0.443131 0.951533
vt 0.443131 0.828800
vt 0.458333 0.828800
vt 0.419268 0.250000
vt 0.419268 0.166667
vt 0.443131 1.000000
vt 0.443131 0.583333
vt 0.458333 0.583333
vt 0.458333 0.666667
vt 0.443131 0.666667
vt 0.443131 0.500000
vt 0.458333 0.500000
vt 0.458333 0.750000
vt 0.443131 0.750000
vt 0.443131 0.460600
vt 0.458333 0.460600
vt 0.419268 0.083333
vt 0.419268 0.000000
vt 0.541667 0.421200
vt 0.458333 0.421200
vt 0.458333 0.437008
vt 0.541667 0.437008
vt 0.443131 0.421200
vt 0.443131 0.437008
vt 0.541667 0.789400
vt 0.458333 0.789400
vt 0.458333 0.812992
vt 0.541667 0.812991
vt 0.443131 0.789400
vt 0.443131 0.812991
vt 0.625000 0.789400
vt 0.625000 0.812991
vt 0.664400 0.666667
vt 0.664400 0.750000
vt 0.687991 0.666667
vt 0.687991 0.750000
vt 0.664400 0.500000
vt 0.664400 0.583333
vt 0.687992 0.500000
vt 0.687991 0.583333
vt 0.296200 0.583333
vt 0.296200 0.666667
vt 0.312008 0.583333
vt 0.312008 0.666667
vt 0.296200 0.500000
vt 0.312008 0.500000
vt 0.296200 0.750000
vt 0.312008 0.750000
vt 0.625000 0.421200
vt 0.625000 0.437008
vt 0.375000 0.083333
vt 0.409066 0.083333
vt 0.409066 0.166667
vt 0.375000 0.166667
vt 0.409066 0.750000
vt 0.409066 0.789400
vt 0.409066 0.437008
vt 0.409066 0.460600
vt 0.419268 0.381800
vt 0.419268 0.421200
vt 0.409066 0.500000
vt 0.409066 0.666667
vt 0.419268 0.951533
vt 0.419268 1.000000
vt 0.409066 0.583333
vt 0.419268 0.828800
vt 0.419268 0.868200
vt 0.419268 0.298467
vt 0.375000 0.828800
vt 0.409066 0.828800
vt 0.409066 0.868200
vt 0.375000 0.868200
vt 0.409066 0.812991
vt 0.409066 0.951533
vt 0.375000 0.951533
vt 0.375000 0.250000
vt 0.409066 0.250000
vt 0.409066 0.298467
vt 0.375000 0.298467
vt 0.409066 0.381800
vt 0.375000 0.381800
vt 0.375000 0.000000
vt 0.409066 0.000000
vt 0.409066 1.000000
vt 0.375000 1.000000
vt 0.409066 0.421200
vt 0.375000 0.421200
vt 0.541667 0.166667
vt 0.541667 0.000000
vt 0.625000 0.000000
vt 0.541667 0.083333
vt 0.443131 0.083333
vt 0.458333 0.083333
vt 0.458333 0.166667
vt 0.443131 0.166667
vt 0.443131 0.000000
vt 0.458333 0.000000
vt 0.375000 0.789400
vt 0.375000 0.812991
vt 0.375000 0.460600
vt 0.375000 0.437008
s 0
f 12/1/1 4/2/1 132/2/1 134/1/1
f 76/3/2 54/4/2 8/5/2 37/6/2
f 43/7/3 16/8/3 6/9/3 39/10/3
f 47/11/4 24/12/4 2/13/4 34/14/4
f 67/15/5 13/16/5 5/17/5 56/18/5
f 27/19/6 11/20/6 2/21/6 24/22/6
f 19/23/7 4/2/7 12/1/7 25/24/7
f 12/25/8 11/26/8 115/26/8 116/25/8
f 61/27/5 7/28/5 14/29/5 65/30/5
f 65/30/5 14/29/5 13/16/5 67/15/5
f 37/6/3 8/5/3 15/31/3 41/32/3
f 41/32/3 15/31/3 16/8/3 43/7/3
f 33/33/9 34/14/9 136/14/9 135/33/9
f 34/14/9 2/13/9 131/13/9 136/14/9
f 9/34/5 30/35/5 32/36/5 10/37/5
f 30/35/5 29/38/5 31/39/5 32/36/5
f 3/40/5 18/41/5 30/35/5 9/34/5
f 18/41/5 17/42/5 29/38/5 30/35/5
f 57/43/10 26/44/10 28/45/10 59/46/10
f 28/45/11 26/44/11 118/44/11 120/45/11
f 53/47/12 20/48/12 26/44/12 57/43/12
f 20/48/13 19/23/13 25/24/13 26/44/13
f 59/46/14 28/45/14 23/49/14 64/50/14
f 28/45/15 27/19/15 24/22/15 23/49/15
f 10/37/5 32/36/5 21/51/5 1/52/5
f 32/36/5 31/39/5 22/53/5 21/51/5
f 72/54/16 64/55/16 23/56/16 45/57/16
f 45/57/16 23/56/16 24/12/16 47/11/16
f 35/58/17 4/59/17 19/60/17 49/61/17
f 49/61/18 19/60/18 20/62/18 51/63/18
f 84/64/19 50/65/19 52/66/19 85/67/19
f 50/65/19 49/61/19 51/63/19 52/66/19
f 77/68/20 36/69/20 50/65/20 84/64/20
f 36/69/20 35/58/20 49/61/20 50/65/20
f 82/70/21 46/71/21 48/72/21 83/73/21
f 46/71/21 45/57/21 47/11/21 48/72/21
f 90/74/21 70/75/21 46/71/21 82/70/21
f 70/75/21 72/54/21 45/57/21 46/71/21
f 125/76/5 122/77/5 141/77/5 144/76/5
f 86/78/9 33/33/9 135/33/9 140/78/9
f 36/69/22 77/68/22 139/68/22 138/69/22
f 11/26/1 12/25/1 134/25/1 133/26/1
f 80/79/3 42/80/3 44/81/3 81/82/3
f 42/80/23 41/32/23 43/7/23 44/81/23
f 78/83/3 38/84/3 42/80/3 80/79/3
f 38/84/24 37/6/24 41/32/24 42/80/24
f 83/73/25 48/72/25 33/33/25 86/78/25
f 48/72/25 47/11/25 34/14/25 33/33/25
f 81/82/3 44/81/3 40/85/3 79/86/3
f 44/81/26 43/7/26 39/10/26 40/85/26
f 88/87/27 74/88/27 38/84/27 78/83/27
f 74/88/28 76/3/28 37/6/28 38/84/28
f 2/21/1 11/20/1 133/20/1 131/21/1
f 123/89/5 124/90/5 143/90/5 142/89/5
f 52/66/19 51/63/19 75/91/19 73/92/19
f 101/93/19 102/94/19 76/3/19 74/88/19
f 85/67/19 52/66/19 73/92/19 87/95/19
f 104/96/19 101/93/19 74/88/19 88/87/19
f 40/85/29 39/10/29 71/97/29 69/98/29
f 99/99/21 100/100/21 72/54/21 70/75/21
f 79/86/30 40/85/30 69/98/30 89/101/30
f 103/102/21 99/99/21 70/75/21 90/74/21
f 39/10/31 6/9/31 63/103/31 71/97/31
f 100/100/16 96/104/16 64/55/16 72/54/16
f 16/8/32 60/105/32 63/106/32 6/9/32
f 94/107/33 59/46/33 64/50/33 96/108/33
f 8/5/34 54/109/34 58/110/34 15/31/34
f 91/111/35 53/47/35 57/43/35 93/112/35
f 15/31/36 58/110/36 60/105/36 16/8/36
f 93/112/1 57/43/1 59/46/1 94/107/1
f 29/38/5 66/113/5 68/114/5 31/39/5
f 97/115/5 65/30/5 67/15/5 98/116/5
f 17/42/5 62/117/5 66/113/5 29/38/5
f 95/118/5 61/27/5 65/30/5 97/115/5
f 31/39/5 68/114/5 55/119/5 22/53/5
f 98/116/5 67/15/5 56/18/5 92/120/5
f 51/63/18 20/62/18 53/121/18 75/91/18
f 102/94/18 91/122/18 54/4/18 76/3/18
f 10/123/37 106/124/37 107/125/37 9/126/37
f 166/127/38 79/86/38 89/101/38 170/128/38
f 171/129/39 104/96/39 88/87/39 169/130/39
f 128/131/40 85/67/40 87/95/40 129/132/40
f 122/77/5 123/89/5 142/89/5 141/77/5
f 169/130/41 88/87/41 78/83/41 165/133/41
f 168/134/3 81/82/3 79/86/3 166/127/3
f 126/135/42 83/73/42 86/78/42 124/136/42
f 165/133/3 78/83/3 80/79/3 167/137/3
f 167/137/3 80/79/3 81/82/3 168/134/3
f 124/136/9 86/78/9 140/78/9 143/136/9
f 35/58/22 36/69/22 138/69/22 137/58/22
f 130/138/43 90/74/43 82/70/43 121/139/43
f 121/139/44 82/70/44 83/73/44 126/135/44
f 125/76/45 77/68/45 84/64/45 127/140/45
f 127/140/46 84/64/46 85/67/46 128/131/46
f 55/141/47 113/142/47 108/143/47 22/144/47
f 170/128/48 89/101/48 103/102/48 172/145/48
f 75/91/18 53/121/18 91/122/18 102/94/18
f 22/144/49 108/143/49 109/146/49 21/147/49
f 3/148/50 105/149/50 110/150/50 18/151/50
f 18/151/50 110/150/50 111/152/50 17/153/50
f 58/110/1 93/112/1 94/107/1 60/105/1
f 54/109/35 91/111/35 93/112/35 58/110/35
f 60/105/33 94/107/33 96/108/33 63/106/33
f 71/97/16 63/103/16 96/104/16 100/100/16
f 89/101/21 69/98/21 99/99/21 103/102/21
f 69/98/21 71/97/21 100/100/21 99/99/21
f 87/95/19 73/92/19 101/93/19 104/96/19
f 73/92/19 75/91/19 102/94/19 101/93/19
f 1/154/37 114/155/37 106/124/37 10/123/37
f 21/147/49 109/146/49 114/156/49 1/157/49
f 9/126/37 107/125/37 105/149/37 3/148/37
f 17/153/51 111/152/51 112/158/51 62/159/51
f 117/24/52 116/1/52 115/20/52 119/19/52
f 118/44/1 117/24/1 119/19/1 120/45/1
f 26/44/53 25/24/53 117/24/53 118/44/53
f 11/20/54 27/19/54 119/19/54 115/20/54
f 25/24/55 12/1/55 116/1/55 117/24/55
f 27/19/56 28/45/56 120/45/56 119/19/56
f 110/150/57 127/140/57 128/131/57 111/152/57
f 105/149/58 125/76/58 127/140/58 110/150/58
f 108/143/59 121/139/59 126/135/59 109/146/59
f 113/142/60 130/138/60 121/139/60 108/143/60
f 106/124/61 123/89/61 122/77/61 107/125/61
f 114/155/61 124/90/61 123/89/61 106/124/61
f 109/146/62 126/135/62 124/136/62 114/156/62
f 107/125/61 122/77/61 125/76/61 105/149/61
f 111/152/63 128/131/63 129/132/63 112/158/63
f 141/77/64 142/89/64 162/89/64 161/77/64
f 135/33/65 136/14/65 150/14/65 149/33/65
f 139/68/66 144/76/66 164/76/66 157/68/66
f 140/78/65 135/33/65 149/33/65 160/78/65
f 138/69/67 139/68/67 157/68/67 152/69/67
f 133/26/68 134/25/68 148/25/68 147/26/68
f 131/21/69 133/20/69 147/20/69 145/21/69
f 134/1/70 132/2/70 146/2/70 148/1/70
f 144/76/64 141/77/64 161/77/64 164/76/64
f 136/14/65 131/13/65 145/13/65 150/14/65
f 137/58/67 138/69/67 152/69/67 151/58/67
f 142/89/64 143/90/64 163/90/64 162/89/64
f 4/59/22 35/58/22 137/58/22 132/59/22
f 77/68/22 125/76/22 144/76/22 139/68/22
f 155/160/71 148/25/71 146/59/71 151/58/71
f 150/161/72 145/162/72 147/26/72 153/163/72
f 153/163/73 147/26/73 148/25/73 155/160/73
f 158/164/74 154/165/74 156/166/74 159/167/74
f 154/165/74 153/163/74 155/160/74 156/166/74
f 160/168/75 149/169/75 154/165/75 158/164/75
f 149/169/75 150/161/75 153/163/75 154/165/75
f 159/167/76 156/166/76 152/69/76 157/68/76
f 156/166/76 155/160/76 151/58/76 152/69/76
f 161/77/77 159/167/77 157/68/77 164/76/77
f 163/90/78 160/168/78 158/164/78 162/89/78
f 162/89/79 158/164/79 159/167/79 161/77/79
f 132/59/67 137/58/67 151/58/67 146/59/67
f 143/136/80 140/78/80 160/78/80 163/136/80
f 56/170/48 170/128/48 172/145/48 92/171/48
f 14/29/3 167/137/3 168/134/3 13/16/3
f 7/28/3 165/133/3 167/137/3 14/29/3
f 13/16/3 168/134/3 166/127/3 5/17/3
f 61/172/81 169/130/81 165/133/81 7/28/81
f 95/173/39 171/129/39 169/130/39 61/172/39
f 5/17/82 166/127/82 170/128/82 56/170/82
f 95/118/83 97/115/83 98/116/83 92/120/83 172/145/83 103/102/83 104/96/83 171/129/83
f 103/102/5 90/74/5 87/95/5 104/96/5
f 62/117/84 112/158/84 129/132/84 87/95/84 90/74/84 130/138/84 113/142/84 55/119/84 68/114/84 66/113/84
