# Blender 5.1.2
# www.blender.org
mtllib Temp_AlphaWingEX_Bot02_Fin.mtl
o Cube.004
v -1.624032 -0.402903 0.677898
v -2.688497 -0.397128 1.787160
v -1.623331 -0.248746 0.678129
v -2.687797 -0.242970 1.787392
v -0.809847 -0.307227 0.946912
v -2.627210 -0.397436 1.807410
v -0.809147 -0.153069 0.947144
v -2.626510 -0.243279 1.807641
vn -0.7215 0.0043 -0.6924
vn -0.0824 0.9935 -0.0780
vn 0.4281 -0.0033 0.9037
vn 0.0824 -0.9935 0.0780
vn 0.3137 -0.0000 -0.9495
vn -0.3137 -0.0000 0.9495
vt 0.375000 0.000000
vt 0.625000 0.000000
vt 0.625000 0.250000
vt 0.375000 0.250000
vt 0.625000 0.500000
vt 0.375000 0.500000
vt 0.625000 0.750000
vt 0.375000 0.750000
vt 0.625000 1.000000
vt 0.375000 1.000000
vt 0.125000 0.500000
vt 0.125000 0.750000
vt 0.875000 0.500000
vt 0.875000 0.750000
s 0
f 1/1/1 2/2/1 4/3/1 3/4/1
f 3/4/2 4/3/2 8/5/2 7/6/2
f 7/6/3 8/5/3 6/7/3 5/8/3
f 5/8/4 6/7/4 2/9/4 1/10/4
f 3/11/5 7/6/5 5/8/5 1/12/5
f 8/5/6 4/13/6 2/14/6 6/7/6
o Cube.002
v -1.623656 -0.249091 -0.726935
v -2.688173 -0.249091 -1.836136
v -1.623656 -0.403250 -0.726935
v -2.688173 -0.403250 -1.836136
v -0.809925 -0.348870 -0.995830
v -2.626886 -0.249091 -1.856388
v -0.809925 -0.503029 -0.995830
v -2.626886 -0.403250 -1.856388
vn -0.7215 -0.0000 0.6924
vn -0.0875 -0.9931 0.0778
vn 0.4280 -0.0000 -0.9038
vn 0.0875 0.9931 -0.0778
vn 0.3138 -0.0000 0.9495
vn -0.3138 -0.0000 -0.9495
vt 0.375000 0.000000
vt 0.625000 0.000000
vt 0.625000 0.250000
vt 0.375000 0.250000
vt 0.625000 0.500000
vt 0.375000 0.500000
vt 0.625000 0.750000
vt 0.375000 0.750000
vt 0.625000 1.000000
vt 0.375000 1.000000
vt 0.125000 0.500000
vt 0.125000 0.750000
vt 0.875000 0.500000
vt 0.875000 0.750000
s 0
f 9/15/7 10/16/7 12/17/7 11/18/7
f 11/18/8 12/17/8 16/19/8 15/20/8
f 15/20/9 16/19/9 14/21/9 13/22/9
f 13/22/10 14/21/10 10/23/10 9/24/10
f 11/25/11 15/20/11 13/22/11 9/26/11
f 16/19/12 12/27/12 10/28/12 14/21/12
o Cube
v -2.363287 0.828323 0.077080
v -3.570315 2.395375 0.077080
v -2.363287 0.828323 -0.077080
v -3.570315 2.395375 -0.077080
v -1.506279 0.828323 -0.022699
v -3.505769 2.395375 0.077080
v -1.506279 0.828323 -0.176859
v -3.505769 2.395375 -0.077080
vn -0.7922 -0.6102 -0.0000
vn -0.1073 -0.0782 -0.9911
vn 0.6169 0.7871 -0.0000
vn 0.1073 0.0782 0.9911
vn -0.0000 -1.0000 -0.0000
vn -0.0000 1.0000 -0.0000
vt 0.375000 0.000000
vt 0.625000 0.000000
vt 0.625000 0.250000
vt 0.375000 0.250000
vt 0.625000 0.500000
vt 0.375000 0.500000
vt 0.625000 0.750000
vt 0.375000 0.750000
vt 0.625000 1.000000
vt 0.375000 1.000000
vt 0.125000 0.500000
vt 0.125000 0.750000
vt 0.875000 0.500000
vt 0.875000 0.750000
s 0
f 17/29/13 18/30/13 20/31/13 19/32/13
f 19/32/14 20/31/14 24/33/14 23/34/14
f 23/34/15 24/33/15 22/35/15 21/36/15
f 21/36/16 22/35/16 18/37/16 17/38/16
f 19/39/17 23/34/17 21/36/17 17/40/17
f 24/33/18 20/41/18 18/42/18 22/35/18
