# Blender 5.1.2
# www.blender.org
mtllib Temp_AlphaWingEX_Bot02_Cockpit.mtl
o Cube.001
v 0.395840 0.572718 -0.268748
v 1.522459 -0.047994 -0.268748
v 0.395840 0.572718 0.274176
v 1.522459 -0.047994 0.274176
v 0.392704 1.024944 -0.268748
v 1.517958 0.460832 -0.268748
v 0.392704 1.024944 0.274176
v 1.517958 0.460832 0.274176
vn 1.0000 0.0088 -0.0000
vn 0.4482 0.8940 -0.0000
vn -0.0000 -0.0000 -1.0000
vn -1.0000 -0.0069 -0.0000
vn -0.0000 -0.0000 1.0000
vt 0.461205 0.662267
vt 0.461205 0.587733
vt 0.538794 0.587733
vt 0.538794 0.662267
s 0
f 4/1/1 2/2/1 6/2/1 8/1/1
f 6/2/2 5/3/2 7/4/2 8/1/2
f 2/2/3 1/3/3 5/3/3 6/2/3
f 1/3/4 3/4/4 7/4/4 5/3/4
f 3/4/5 4/1/5 8/1/5 7/4/5
